<?xml version="1.0" encoding="UTF-8" standalone="no"?>
<!-- Created with Inkscape (http://www.inkscape.org/) -->

<svg
   xmlns:dc="http://purl.org/dc/elements/1.1/"
   xmlns:cc="http://creativecommons.org/ns#"
   xmlns:rdf="http://www.w3.org/1999/02/22-rdf-syntax-ns#"
   xmlns:svg="http://www.w3.org/2000/svg"
   xmlns="http://www.w3.org/2000/svg"
   xmlns:sodipodi="http://sodipodi.sourceforge.net/DTD/sodipodi-0.dtd"
   xmlns:inkscape="http://www.inkscape.org/namespaces/inkscape"
   id="svg3336"
   version="1.1"
   inkscape:version="0.91 r13725"
   xml:space="preserve"
   width="483.54999"
   height="273.91437"
   viewBox="0 0 483.54999 273.91435"
   sodipodi:docname="弘國logo.svg"><metadata
     id="metadata3342"><rdf:RDF><cc:Work
         rdf:about=""><dc:format>image/svg+xml</dc:format><dc:type
           rdf:resource="http://purl.org/dc/dcmitype/StillImage" /><dc:title></dc:title></cc:Work></rdf:RDF></metadata><defs
     id="defs3340"><clipPath
       clipPathUnits="userSpaceOnUse"
       id="clipPath3350"><path
         d="m 0,841.89 595.28,0 L 595.28,0 0,0 0,841.89 Z"
         id="path3352"
         inkscape:connector-curvature="0" /></clipPath></defs><sodipodi:namedview
     pagecolor="#ffffff"
     bordercolor="#666666"
     borderopacity="1"
     objecttolerance="10"
     gridtolerance="10"
     guidetolerance="10"
     inkscape:pageopacity="0"
     inkscape:pageshadow="2"
     inkscape:window-width="1303"
     inkscape:window-height="847"
     id="namedview3338"
     showgrid="false"
     fit-margin-top="0"
     fit-margin-left="0"
     fit-margin-right="0"
     fit-margin-bottom="0"
     inkscape:zoom="0.62050859"
     inkscape:cx="243.63874"
     inkscape:cy="150.71123"
     inkscape:window-x="65"
     inkscape:window-y="11"
     inkscape:window-maximized="0"
     inkscape:current-layer="g3344" /><g
     id="g3344"
     inkscape:groupmode="layer"
     inkscape:label="弘國logo"
     transform="matrix(1.25,0,0,-1.25,-128.41125,649.38437)"><g
       id="g3346"><g
         id="g3348"
         clip-path="url(#clipPath3350)"><g
           id="g3354"
           transform="translate(414.8301,310.958)"><path
             d="m 0,0 2.848,11.513 44.122,0 -2.38,-9.641 C 44.281,0.623 43.518,0 42.294,0 L 0,0 Z m -14.097,-5.286 -1.306,-5.296 62.086,0 c 4.869,0 8.056,2.601 9.528,7.781 l 6.151,24.894 -6.39,0 -6.389,0 -44.124,0 -6.403,0 -6.392,0 L -12.79,0 -14.097,-5.286 Z m 53.146,43.87 2.15,8.721 27.698,0 2.616,10.582 -27.7,0 1.922,7.783 -12.779,0 -1.922,-7.783 -14.008,0 3.675,6.216 -12.479,0 L 3.937,56.64 C 3.425,55.391 2.334,54.661 0.662,54.463 l -2.43,0 -0.642,-9.957 6.093,0 c 2.634,0 4.996,0.931 7.08,2.799 l 17.661,0 -2.154,-8.721 -31.659,0 -2.613,-10.567 73.954,0 2.611,10.567 -29.514,0 z m -108.96,-20.847 -0.693,-2.799 -8.518,0 0.693,2.799 8.518,0 z m 20.618,-2.799 -8.532,0 0.691,2.799 8.53,0 -0.689,-2.799 z m -32.29,-9.959 0.846,3.423 8.517,0 -0.843,-3.423 -8.52,0 z m 21.299,0 0.844,3.423 8.532,0 -0.383,-1.551 c -0.311,-1.247 -1.074,-1.872 -2.294,-1.872 l -6.699,0 z m -18.215,46.988 -6.995,0 0.691,2.801 7.002,0 -0.698,-2.801 z m 33.776,0 -20.997,0 0.694,2.801 20.997,0 -0.694,-2.801 z m -23.3,-9.335 0.617,2.496 20.999,0 c -0.559,-1.457 -1.681,-2.283 -3.358,-2.496 l -18.258,0 z m -13.471,-2.799 -0.692,-2.802 39.867,0 c 4.469,0 7.241,2.177 8.312,6.531 l 0.387,1.566 5.169,0 1.691,6.839 -5.169,0 0.692,2.801 5.167,0 2.154,8.71 -28.609,0 0.539,2.192 -12.788,0 -0.541,-2.192 -17.338,0 -6.399,0 -6.391,0 L -110.66,1.872 C -110.964,0.623 -111.731,0 -112.938,0 l -1.534,0 -1.08,-10.582 7,0 c 4.868,0 8.044,2.601 9.53,7.781 l 7.459,30.19 24.034,0 -0.694,-2.799 -8.514,0 -6.091,0 -6.091,0 -4.844,-19.611 -0.845,-3.427 -0.841,-3.411 8.528,0 -0.918,-1.25 c -1.125,-1.246 -2.395,-1.87 -3.811,-1.87 l -6.093,0 0.448,-5.603 10.65,0 c 4.258,0 8.173,1.872 11.73,5.603 l 2.606,3.12 7.905,0 1.046,-5.604 c 0.968,-1.868 3.243,-2.908 6.841,-3.119 l 14.606,0 1.383,5.603 -5.467,0 c -1.427,0 -2.414,0.516 -2.969,1.553 l -0.528,1.567 0.607,0 c 4.87,0 8.054,2.588 9.53,7.783 l 4.611,18.666 -6.089,0 -6.078,0 -8.532,0 0.693,2.799 22.219,0 1.842,7.463 -59.034,0 2.539,10.276 7,0 -0.615,-2.496 -0.695,-2.799 z m -116.855,-40.458 13.606,55.088 46.269,0 -13.141,-53.212 c -0.31,-1.251 -1.074,-1.876 -2.296,-1.876 l -44.438,0 z m -13.709,-4.979 1.229,4.979 16.067,65.048 6.403,0 6.077,0 46.266,0 6.39,0 6.092,0 -16.602,-67.224 c -1.281,-5.18 -4.365,-7.781 -9.233,-7.781 l -63.917,0 1.228,4.978 z m 49.976,55.713 0.316,2.483 11.258,0 -0.301,-2.483 3.04,0 0.081,2.803 4.871,0 -0.082,-2.803 1.83,0 -2.154,-8.724 -8.533,0 -1.398,-15.548 4.823,13.371 4.868,0 -6.749,-19.916 c -1.016,-2.485 -2.335,-4.144 -3.956,-4.981 l -0.076,-0.302 c 0.046,-1.451 0.475,-2.178 1.281,-2.178 l 2.441,0 -2.46,-9.959 -7.609,0 c -4.675,0 -6.54,2.286 -5.622,6.838 l 0.32,4.978 -2.13,0 0.79,9.347 2.427,0 1.791,18.35 -22.516,0 2.154,8.724 21.295,0 z m -19.693,-28.016 1.844,7.472 4.572,0 -1.384,-5.6 c -0.309,-1.249 -1.072,-1.872 -2.295,-1.872 l -2.737,0 z m -9.597,-4.356 -1.074,-4.354 13.997,0 c 4.871,0 8.043,2.589 9.532,7.783 l 4.227,17.112 -4.259,0 -4.259,0 -4.57,0 -4.262,0 -4.259,0 -3.997,-16.185 -1.076,-4.356 z m -1.768,-7.155 -2.15,-8.71 22.219,0 2.151,8.71 -22.22,0 z m -72.209,-21.164 -12.78,0 3.079,12.454 27.546,63.478 12.779,0 -28.009,-65.35 11.867,0 c 1.677,0.211 2.593,1.037 2.746,2.497 l 2.429,29.554 11.57,0 -3.284,-34.231 c -0.982,-5.603 -4.203,-8.402 -9.684,-8.402 l -18.259,0 z M -293.174,0 l -14.609,0 -1.093,-10.582 20.088,0 c 4.869,0 8.057,2.601 9.53,7.781 l 6.533,26.446 -6.389,0 -6.39,0 -5.48,0 2.385,9.655 10.649,0 c 4.869,0 8.054,2.589 9.531,7.779 l 5.763,23.344 -6.386,0 -6.389,0 -18.87,0 -2.612,-10.582 18.867,0 -1.997,-8.087 c -0.31,-1.248 -1.073,-1.872 -2.295,-1.872 l -3.648,0 -6.389,0 -6.389,0 -4.997,-20.237 -1.304,-5.284 -1.308,-5.282 18.26,0 -2.765,-11.207 C -291.188,0.623 -291.953,0 -293.174,0"
             style="fill:#000000;fill-opacity:1;fill-rule:evenodd;stroke:none"
             id="path3356"
             inkscape:connector-curvature="0" /></g><path
           d="m 102.729,400.147 386.84,0 0,-10.626 -386.84,0 0,10.626 z"
           style="fill:#000000;fill-opacity:1;fill-rule:evenodd;stroke:none"
           id="path3358"
           inkscape:connector-curvature="0" /><g
           id="g3360"
           transform="translate(357.3242,498.0425)"><path
             d="m 0,0 -24.262,0 -0.348,-27.935 24.307,0 1.543,0.196 1.51,0.288 1.481,0.468 1.407,0.665 1.315,0.801 1.238,0.954 1.119,1.071 0.998,1.179 0.847,1.3 0.711,1.376 0.545,1.452 0.392,1.511 0.213,1.527 0.045,1.558 -0.123,1.541 -0.302,1.526 -0.468,1.466 -0.619,1.422 -0.772,1.344 -0.922,1.256 -1.057,1.133 -1.164,1.013 -1.286,0.876 -1.362,0.741 -1.45,0.574 L 2.04,-0.317 0.516,-0.076 0,0 Z m -50.397,8.707 0,12.712 51.589,0 1.543,0.031 2.674,-0.092 2.664,-0.317 2.615,-0.529 2.567,-0.741 2.496,-0.952 2.417,-1.148 2.312,-1.332 2.193,-1.541 2.074,-1.692 1.902,-1.874 1.755,-2.012 1.603,-2.145 1.403,-2.283 1.211,-2.39 1.013,-2.464 0.814,-2.553 0.607,-2.6 0.376,-2.645 0.179,-2.677 -0.058,-2.66 -0.256,-2.659 -0.484,-2.646 -0.71,-2.57 -0.893,-2.524 -1.104,-2.435 -1.314,-2.328 -1.482,-2.221 -1.66,-2.101 -1.831,-1.95 -1.995,-1.785 -2.116,-1.617 -2.254,-1.451 -2.357,-1.27 -2.449,-1.089 -2.541,-0.845 -2.583,-0.589 -2.646,-0.379 -2.675,-0.242 -1.165,-0.09 30.339,-40.966 -27.299,0 -30.339,39.454 0,-39.454 -25.789,0 -0.074,9.705 3.098,2.675 2.993,2.752 2.782,2.932 2.524,3.189 2.22,3.402 1.937,3.582 1.675,3.704 1.379,3.824 1.087,3.915 0.772,3.976 0.469,4.036 0.135,4.066 -0.165,4.066 -0.501,4.036 -0.784,3.976 -1.12,3.916 -1.406,3.808 -1.706,3.688 -1.982,3.538 -2.251,3.387 -2.511,3.189 -2.75,2.993 -2.977,2.766 -3.19,2.525 0,0.015 z"
             style="fill:#000000;fill-opacity:1;fill-rule:evenodd;stroke:none"
             id="path3362"
             inkscape:connector-curvature="0" /></g><g
           id="g3364"
           transform="translate(426.5547,497.7695)"><path
             d="m 0,0 2.645,0.348 2.664,0.242 2.644,0.045 2.645,-0.211 2.615,-0.453 2.57,-0.696 2.508,-0.892 2.421,-1.104 2.327,-1.284 2.192,-1.498 2.07,-1.662 1.934,-1.829 1.755,-1.995 1.585,-2.132 1.406,-2.253 1.211,-2.371 0.996,-2.464 0.801,-2.54 0.575,-2.586 0.362,-2.63 0.137,-2.66 -0.088,-2.66 -0.318,-2.631 -0.53,-2.615 -0.74,-2.54 -0.968,-2.478 -1.165,-2.389 -1.359,-2.281 -1.558,-2.163 -1.724,-2.025 -1.889,-1.861 -2.04,-1.707 -2.178,-1.526 -2.298,-1.332 -2.401,-1.132 -2.482,-0.952 -2.569,-0.727 -2.6,-0.513 -2.642,-0.257 -2.65,0 -2.659,0.196 -2.644,0.303 L 0,0 Z m 2.072,21.512 -24.276,0 0,-106.193 24.276,0 4.567,-0.044 4.563,0.105 4.518,0.438 4.431,0.892 4.353,1.33 4.232,1.709 4.068,2.039 3.869,2.36 3.659,2.675 3.414,2.992 3.16,3.281 2.857,3.523 2.553,3.764 2.225,3.959 1.875,4.127 1.509,4.278 1.15,4.399 0.77,4.474 0.393,4.535 0,4.535 -0.393,4.521 -0.77,4.473 -1.15,4.399 -1.509,4.278 -1.875,4.141 -2.225,3.962 -2.553,3.762 -2.857,3.524 -3.16,3.265 -3.414,2.992 -3.659,2.69 -3.884,2.374 -4.053,2.027 -4.232,1.677 -4.338,1.3 -4.446,0.937 -4.518,0.56 -4.534,0.166 -4.535,-0.212 -0.061,-0.014 z"
             style="fill:#000000;fill-opacity:1;fill-rule:evenodd;stroke:none"
             id="path3366"
             inkscape:connector-curvature="0" /></g><g
           id="g3368"
           transform="translate(260.2461,517.7686)"><path
             d="m 0,0 -2.887,-3.067 -4.201,-2.012 -4.097,-2.132 -3.93,-2.434 -3.673,-2.826 -3.401,-3.205 -3.099,-3.491 -2.812,-3.72 -2.463,-3.945 -2.131,-4.141 -1.755,-4.307 -1.375,-4.446 -0.997,-4.548 -0.62,-4.641 -0.212,-4.656 0.257,-4.64 0.711,-4.551 1.057,-4.505 1.225,-4.489 -17.171,-32.924 -22.766,53.103 -30.338,-53.103 -50.065,104.68 27.315,0 25.789,-56.127 27.299,50.05 22.766,-50.05 L -22.765,0 0,0 Z"
             style="fill:#000000;fill-opacity:1;fill-rule:evenodd;stroke:none"
             id="path3370"
             inkscape:connector-curvature="0" /></g><g
           id="g3372"
           transform="translate(317.8838,464.6655)"><path
             d="m 0,0 -0.149,-3.538 -0.441,-3.536 -0.739,-3.477 -1.028,-3.415 -1.315,-3.312 -1.573,-3.174 -1.843,-3.054 -2.101,-2.871 -2.329,-2.692 -2.541,-2.493 -2.733,-2.268 -2.917,-2.025 -3.084,-1.785 -3.221,-1.512 -3.325,-1.239 -3.431,-0.952 -3.492,-0.665 -3.537,-0.378 -3.567,-0.075 -3.553,0.227 -3.506,0.513 -3.462,0.816 -3.386,1.105 -3.281,1.374 -3.158,1.648 -2.995,1.906 -2.841,2.145 -2.644,2.389 -2.435,2.585 -2.206,2.795 -1.966,2.963 -1.722,3.115 -1.437,3.251 -1.179,3.355 -0.877,3.446 -0.605,3.507 -0.287,3.553 0,3.552 0.287,3.553 0.605,3.506 0.877,3.446 1.179,3.357 1.437,3.249 1.722,3.113 1.966,2.963 2.206,2.781 2.435,2.601 2.644,2.374 2.841,2.161 2.995,1.905 3.158,1.648 3.281,1.375 3.386,1.104 3.462,0.816 3.506,0.514 3.553,0.226 3.567,-0.076 3.537,-0.377 3.492,-0.666 3.431,-0.951 3.325,-1.24 3.221,-1.511 3.084,-1.785 2.917,-2.026 2.733,-2.266 2.541,-2.494 2.329,-2.691 2.086,-2.888 1.858,-3.038 1.602,-3.19 1.316,-3.295 0.998,-3.416 0.65,-3.477 L -0.272,3.566 0,0 Z m 6.093,0 -0.318,4.066 -0.466,4.036 -0.743,3.975 -1.132,3.9 -1.514,3.779 -1.826,3.643 -2.119,3.477 -2.387,3.296 -2.659,3.083 -2.903,2.843 -3.13,2.599 -3.341,2.313 -3.522,2.041 -3.689,1.722 -3.809,1.422 -3.915,1.089 -3.99,0.77 -4.052,0.424 -4.066,0.089 -4.067,-0.255 -4.019,-0.606 -3.962,-0.921 -3.868,-1.256 -3.75,-1.571 -3.597,-1.889 -3.447,-2.177 -3.235,-2.465 -3.022,-2.72 -2.783,-2.962 -2.524,-3.19 -2.252,-3.386 -1.965,-3.567 -1.648,-3.72 -1.346,-3.838 -1.012,-3.947 -0.665,-4.005 -0.348,-4.052 0,-4.066 0.348,-4.052 0.665,-4.02 1.012,-3.93 1.346,-3.839 1.648,-3.719 1.965,-3.568 2.252,-3.386 2.524,-3.189 2.783,-2.962 3.022,-2.723 3.235,-2.463 3.447,-2.177 3.597,-1.89 3.75,-1.57 3.868,-1.255 3.962,-0.937 4.019,-0.591 4.067,-0.256 4.066,0.091 4.052,0.422 3.99,0.756 3.915,1.105 3.809,1.419 3.689,1.724 3.522,2.04 3.341,2.313 3.13,2.6 2.903,2.843 2.659,3.082 2.387,3.282 2.119,3.492 1.797,3.642 1.498,3.779 1.177,3.885 0.848,3.992 0.512,4.035 L 6.093,0 Z"
             style="fill:#000000;fill-opacity:1;fill-rule:evenodd;stroke:none"
             id="path3374"
             inkscape:connector-curvature="0" /></g><g
           id="g3376"
           transform="translate(299.7305,464.6655)"><path
             d="M 0,0 -0.167,2.04 -0.393,4.066 -0.77,6.062 -1.329,7.996 -2.084,9.9 l -0.924,1.814 -1.059,1.755 -1.193,1.647 -1.329,1.543 -1.452,1.42 -1.572,1.299 -1.678,1.164 -1.77,1.013 -1.828,0.877 -1.92,0.696 -1.95,0.558 -2.011,0.379 -2.026,0.211 -2.025,0.045 -2.04,-0.136 -2.011,-0.287 -1.995,-0.468 -1.936,-0.635 -1.874,-0.787 -1.798,-0.937 -1.723,-1.103 -1.616,-1.225 -1.513,-1.359 -1.405,-1.482 -1.256,-1.603 -1.134,-1.692 -0.982,-1.784 -0.831,-1.858 -0.666,-1.936 -0.498,-1.965 -0.347,-2.011 -0.167,-2.026 0,-2.04 0.167,-2.026 0.347,-2.01 0.498,-1.98 0.666,-1.92 0.831,-1.859 0.982,-1.784 1.134,-1.693 1.256,-1.602 1.405,-1.481 1.513,-1.361 1.616,-1.239 1.723,-1.089 1.798,-0.938 1.874,-0.785 1.936,-0.635 1.995,-0.468 2.011,-0.303 2.04,-0.121 2.025,0.046 2.026,0.212 2.011,0.377 1.95,0.544 1.92,0.711 1.844,0.876 1.754,1.013 1.678,1.163 1.572,1.301 1.452,1.421 1.329,1.542 1.193,1.648 1.059,1.737 0.909,1.831 0.754,1.889 0.575,1.95 0.423,1.995 0.256,2.025 L 0,0 Z"
             style="fill:#e60012;fill-opacity:1;fill-rule:evenodd;stroke:none"
             id="path3378"
             inkscape:connector-curvature="0" /></g></g></g></g></svg>