<?xml version="1.0" encoding="UTF-8" standalone="no"?>
<!-- Created with Inkscape (http://www.inkscape.org/) -->

<svg
   xmlns:dc="http://purl.org/dc/elements/1.1/"
   xmlns:cc="http://creativecommons.org/ns#"
   xmlns:rdf="http://www.w3.org/1999/02/22-rdf-syntax-ns#"
   xmlns:svg="http://www.w3.org/2000/svg"
   xmlns="http://www.w3.org/2000/svg"
   xmlns:sodipodi="http://sodipodi.sourceforge.net/DTD/sodipodi-0.dtd"
   xmlns:inkscape="http://www.inkscape.org/namespaces/inkscape"
   id="svg3336"
   version="1.1"
   inkscape:version="0.91 r13725"
   xml:space="preserve"
   width="495.612"
   height="178.07875"
   viewBox="0 0 495.612 178.07874"
   sodipodi:docname="hunggwo-logo-only.svg"><metadata
     id="metadata3342"><rdf:RDF><cc:Work
         rdf:about=""><dc:format>image/svg+xml</dc:format><dc:type
           rdf:resource="http://purl.org/dc/dcmitype/StillImage" /><dc:title></dc:title></cc:Work></rdf:RDF></metadata><defs
     id="defs3340"><clipPath
       clipPathUnits="userSpaceOnUse"
       id="clipPath3350"><path
         d="m 0,841.89 595.28,0 L 595.28,0 0,0 0,841.89 Z"
         id="path3352"
         inkscape:connector-curvature="0" /></clipPath></defs><sodipodi:namedview
     pagecolor="#ffffff"
     bordercolor="#666666"
     borderopacity="1"
     objecttolerance="10"
     gridtolerance="10"
     guidetolerance="10"
     inkscape:pageopacity="0"
     inkscape:pageshadow="2"
     inkscape:window-width="1303"
     inkscape:window-height="847"
     id="namedview3338"
     showgrid="false"
     fit-margin-top="0"
     fit-margin-left="0"
     fit-margin-right="0"
     fit-margin-bottom="0"
     inkscape:zoom="0.62050859"
     inkscape:cx="240.17112"
     inkscape:cy="9.8756226"
     inkscape:window-x="65"
     inkscape:window-y="11"
     inkscape:window-maximized="0"
     inkscape:current-layer="g3348" /><g
     id="g3344"
     inkscape:groupmode="layer"
     inkscape:label="弘國logo"
     transform="matrix(1.25,0,0,-1.25,-131.87888,694.38436)"><g
       id="g3346"><g
         id="g3348"
         clip-path="url(#clipPath3350)"><g
           id="g3354"
           transform="translate(414.8301,310.958)" /><g
           id="g3360"
           transform="translate(365.3242,517.2425)"><path
             d="m 0,0 -24.262,0 -0.348,-27.935 24.307,0 1.543,0.196 1.51,0.288 1.481,0.468 1.407,0.665 1.315,0.801 1.238,0.954 1.119,1.071 0.998,1.179 0.847,1.3 0.711,1.376 0.545,1.452 0.392,1.511 0.213,1.527 0.045,1.558 -0.123,1.541 -0.302,1.526 -0.468,1.466 -0.619,1.422 -0.772,1.344 -0.922,1.256 -1.057,1.133 -1.164,1.013 -1.286,0.876 -1.362,0.741 -1.45,0.574 L 2.04,-0.317 0.516,-0.076 0,0 Z m -50.397,8.707 0,12.712 51.589,0 1.543,0.031 2.674,-0.092 2.664,-0.317 2.615,-0.529 2.567,-0.741 2.496,-0.952 2.417,-1.148 2.312,-1.332 2.193,-1.541 2.074,-1.692 1.902,-1.874 1.755,-2.012 1.603,-2.145 1.403,-2.283 1.211,-2.39 1.013,-2.464 0.814,-2.553 0.607,-2.6 0.376,-2.645 0.179,-2.677 -0.058,-2.66 -0.256,-2.659 -0.484,-2.646 -0.71,-2.57 -0.893,-2.524 -1.104,-2.435 -1.314,-2.328 -1.482,-2.221 -1.66,-2.101 -1.831,-1.95 -1.995,-1.785 -2.116,-1.617 -2.254,-1.451 -2.357,-1.27 -2.449,-1.089 -2.541,-0.845 -2.583,-0.589 -2.646,-0.379 -2.675,-0.242 -1.165,-0.09 30.339,-40.966 -27.299,0 -30.339,39.454 0,-39.454 -25.789,0 -0.074,9.705 3.098,2.675 2.993,2.752 2.782,2.932 2.524,3.189 2.22,3.402 1.937,3.582 1.675,3.704 1.379,3.824 1.087,3.915 0.772,3.976 0.469,4.036 0.135,4.066 -0.165,4.066 -0.501,4.036 -0.784,3.976 -1.12,3.916 -1.406,3.808 -1.706,3.688 -1.982,3.538 -2.251,3.387 -2.511,3.189 -2.75,2.993 -2.977,2.766 -3.19,2.525 0,0.015 z"
             style="fill:#000000;fill-opacity:1;fill-rule:evenodd;stroke:none"
             id="path3362"
             inkscape:connector-curvature="0" /></g><g
           id="g3364"
           transform="translate(434.5547,516.9695)"><path
             d="m 0,0 2.645,0.348 2.664,0.242 2.644,0.045 2.645,-0.211 2.615,-0.453 2.57,-0.696 2.508,-0.892 2.421,-1.104 2.327,-1.284 2.192,-1.498 2.07,-1.662 1.934,-1.829 1.755,-1.995 1.585,-2.132 1.406,-2.253 1.211,-2.371 0.996,-2.464 0.801,-2.54 0.575,-2.586 0.362,-2.63 0.137,-2.66 -0.088,-2.66 -0.318,-2.631 -0.53,-2.615 -0.74,-2.54 -0.968,-2.478 -1.165,-2.389 -1.359,-2.281 -1.558,-2.163 -1.724,-2.025 -1.889,-1.861 -2.04,-1.707 -2.178,-1.526 -2.298,-1.332 -2.401,-1.132 -2.482,-0.952 -2.569,-0.727 -2.6,-0.513 -2.642,-0.257 -2.65,0 -2.659,0.196 -2.644,0.303 L 0,0 Z m 2.072,21.512 -24.276,0 0,-106.193 24.276,0 4.567,-0.044 4.563,0.105 4.518,0.438 4.431,0.892 4.353,1.33 4.232,1.709 4.068,2.039 3.869,2.36 3.659,2.675 3.414,2.992 3.16,3.281 2.857,3.523 2.553,3.764 2.225,3.959 1.875,4.127 1.509,4.278 1.15,4.399 0.77,4.474 0.393,4.535 0,4.535 -0.393,4.521 -0.77,4.473 -1.15,4.399 -1.509,4.278 -1.875,4.141 -2.225,3.962 -2.553,3.762 -2.857,3.524 -3.16,3.265 -3.414,2.992 -3.659,2.69 -3.884,2.374 -4.053,2.027 -4.232,1.677 -4.338,1.3 -4.446,0.937 -4.518,0.56 -4.534,0.166 -4.535,-0.212 -0.061,-0.014 z"
             style="fill:#000000;fill-opacity:1;fill-rule:evenodd;stroke:none"
             id="path3366"
             inkscape:connector-curvature="0" /></g><g
           id="g3368"
           transform="translate(268.2461,536.9686)"><path
             d="m 0,0 -2.887,-3.067 -4.201,-2.012 -4.097,-2.132 -3.93,-2.434 -3.673,-2.826 -3.401,-3.205 -3.099,-3.491 -2.812,-3.72 -2.463,-3.945 -2.131,-4.141 -1.755,-4.307 -1.375,-4.446 -0.997,-4.548 -0.62,-4.641 -0.212,-4.656 0.257,-4.64 0.711,-4.551 1.057,-4.505 1.225,-4.489 -17.171,-32.924 -22.766,53.103 -30.338,-53.103 -50.065,104.68 27.315,0 25.789,-56.127 27.299,50.05 22.766,-50.05 L -22.765,0 0,0 Z"
             style="fill:#000000;fill-opacity:1;fill-rule:evenodd;stroke:none"
             id="path3370"
             inkscape:connector-curvature="0" /></g><g
           id="g3372"
           transform="translate(325.8838,483.8655)"><path
             d="m 0,0 -0.149,-3.538 -0.441,-3.536 -0.739,-3.477 -1.028,-3.415 -1.315,-3.312 -1.573,-3.174 -1.843,-3.054 -2.101,-2.871 -2.329,-2.692 -2.541,-2.493 -2.733,-2.268 -2.917,-2.025 -3.084,-1.785 -3.221,-1.512 -3.325,-1.239 -3.431,-0.952 -3.492,-0.665 -3.537,-0.378 -3.567,-0.075 -3.553,0.227 -3.506,0.513 -3.462,0.816 -3.386,1.105 -3.281,1.374 -3.158,1.648 -2.995,1.906 -2.841,2.145 -2.644,2.389 -2.435,2.585 -2.206,2.795 -1.966,2.963 -1.722,3.115 -1.437,3.251 -1.179,3.355 -0.877,3.446 -0.605,3.507 -0.287,3.553 0,3.552 0.287,3.553 0.605,3.506 0.877,3.446 1.179,3.357 1.437,3.249 1.722,3.113 1.966,2.963 2.206,2.781 2.435,2.601 2.644,2.374 2.841,2.161 2.995,1.905 3.158,1.648 3.281,1.375 3.386,1.104 3.462,0.816 3.506,0.514 3.553,0.226 3.567,-0.076 3.537,-0.377 3.492,-0.666 3.431,-0.951 3.325,-1.24 3.221,-1.511 3.084,-1.785 2.917,-2.026 2.733,-2.266 2.541,-2.494 2.329,-2.691 2.086,-2.888 1.858,-3.038 1.602,-3.19 1.316,-3.295 0.998,-3.416 0.65,-3.477 L -0.272,3.566 0,0 Z m 6.093,0 -0.318,4.066 -0.466,4.036 -0.743,3.975 -1.132,3.9 -1.514,3.779 -1.826,3.643 -2.119,3.477 -2.387,3.296 -2.659,3.083 -2.903,2.843 -3.13,2.599 -3.341,2.313 -3.522,2.041 -3.689,1.722 -3.809,1.422 -3.915,1.089 -3.99,0.77 -4.052,0.424 -4.066,0.089 -4.067,-0.255 -4.019,-0.606 -3.962,-0.921 -3.868,-1.256 -3.75,-1.571 -3.597,-1.889 -3.447,-2.177 -3.235,-2.465 -3.022,-2.72 -2.783,-2.962 -2.524,-3.19 -2.252,-3.386 -1.965,-3.567 -1.648,-3.72 -1.346,-3.838 -1.012,-3.947 -0.665,-4.005 -0.348,-4.052 0,-4.066 0.348,-4.052 0.665,-4.02 1.012,-3.93 1.346,-3.839 1.648,-3.719 1.965,-3.568 2.252,-3.386 2.524,-3.189 2.783,-2.962 3.022,-2.723 3.235,-2.463 3.447,-2.177 3.597,-1.89 3.75,-1.57 3.868,-1.255 3.962,-0.937 4.019,-0.591 4.067,-0.256 4.066,0.091 4.052,0.422 3.99,0.756 3.915,1.105 3.809,1.419 3.689,1.724 3.522,2.04 3.341,2.313 3.13,2.6 2.903,2.843 2.659,3.082 2.387,3.282 2.119,3.492 1.797,3.642 1.498,3.779 1.177,3.885 0.848,3.992 0.512,4.035 L 6.093,0 Z"
             style="fill:#000000;fill-opacity:1;fill-rule:evenodd;stroke:none"
             id="path3374"
             inkscape:connector-curvature="0" /></g><g
           id="g3376"
           transform="translate(307.7305,483.8655)"><path
             d="M 0,0 -0.167,2.04 -0.393,4.066 -0.77,6.062 -1.329,7.996 -2.084,9.9 l -0.924,1.814 -1.059,1.755 -1.193,1.647 -1.329,1.543 -1.452,1.42 -1.572,1.299 -1.678,1.164 -1.77,1.013 -1.828,0.877 -1.92,0.696 -1.95,0.558 -2.011,0.379 -2.026,0.211 -2.025,0.045 -2.04,-0.136 -2.011,-0.287 -1.995,-0.468 -1.936,-0.635 -1.874,-0.787 -1.798,-0.937 -1.723,-1.103 -1.616,-1.225 -1.513,-1.359 -1.405,-1.482 -1.256,-1.603 -1.134,-1.692 -0.982,-1.784 -0.831,-1.858 -0.666,-1.936 -0.498,-1.965 -0.347,-2.011 -0.167,-2.026 0,-2.04 0.167,-2.026 0.347,-2.01 0.498,-1.98 0.666,-1.92 0.831,-1.859 0.982,-1.784 1.134,-1.693 1.256,-1.602 1.405,-1.481 1.513,-1.361 1.616,-1.239 1.723,-1.089 1.798,-0.938 1.874,-0.785 1.936,-0.635 1.995,-0.468 2.011,-0.303 2.04,-0.121 2.025,0.046 2.026,0.212 2.011,0.377 1.95,0.544 1.92,0.711 1.844,0.876 1.754,1.013 1.678,1.163 1.572,1.301 1.452,1.421 1.329,1.542 1.193,1.648 1.059,1.737 0.909,1.831 0.754,1.889 0.575,1.95 0.423,1.995 0.256,2.025 L 0,0 Z"
             style="fill:#e60012;fill-opacity:1;fill-rule:evenodd;stroke:none"
             id="path3378"
             inkscape:connector-curvature="0" /></g></g></g></g></svg>